<svg xmlns="http://www.w3.org/2000/svg"  viewBox="0 0 100 100" width="100px" height="100px"><path d="M16.5,96c-1.736,0-3.368-0.676-4.596-1.904 C10.676,92.868,10,91.236,10,89.5c0-8.399,5.299-15.929,13.196-18.768l10.442-4.113c-1.799-2.709-2.942-5.958-3.668-9.011 c-1.639-0.618-1.669-2.528-2.873-3.907c-3.807-4.358-6.706-11.579-2.71-16.249c0.39-0.456,0.827-0.869,1.302-1.237 c-1.416-7.572-0.619-14.062,2.383-19.337c4.146-7.286,11.211-9.842,14.056-10.603C43.247,5.976,47.263,5,51.973,5 c7.938,0,12.125,2.782,14.332,5.704c4.739,1.818,8.327,4.93,10.441,9.082c2.909,5.712,2.483,12.156,1.646,16.479 c0.451,0.355,0.867,0.752,1.239,1.187c3.997,4.672,2.539,12.782-1.268,17.14c-1.139,1.303-2.518,2.287-4.052,2.912 c-0.607,2.866-1.739,6.223-3.843,9.156l10.385,4.09C88.72,73.578,94,81.101,94,89.5c0,3.584-2.916,6.5-6.5,6.5H16.5z" opacity=".35"/><path fill="#f2f2f2" d="M14.5,94c-1.736,0-3.368-0.676-4.596-1.904C8.676,90.868,8,89.236,8,87.5 c0-8.399,5.299-15.929,13.196-18.768l10.442-4.113c-1.799-2.709-2.942-5.958-3.668-9.011c-1.639-0.618-3.112-1.638-4.316-3.017 c-3.807-4.358-5.264-12.469-1.268-17.139c0.39-0.456,0.827-0.869,1.302-1.237c-1.416-7.572-0.619-14.062,2.383-19.337 c4.146-7.286,11.211-9.842,14.056-10.603C41.246,3.976,45.262,3,49.972,3c7.938,0,12.125,2.782,14.332,5.704 c4.739,1.818,8.327,4.93,10.441,9.082c2.909,5.712,2.483,12.156,1.646,16.479c0.451,0.355,0.867,0.752,1.239,1.187 c3.997,4.672,2.539,12.782-1.268,17.14c-1.139,1.303-2.518,2.287-4.052,2.912c-0.607,2.866-1.739,6.223-3.843,9.156l10.385,4.09 C86.72,71.578,92,79.101,92,87.5c0,3.584-2.916,6.5-6.5,6.5H14.5z"/><path fill="#b35d26" d="M76.545,74.828L59,69.009l1.478-6.812c3.73-3.02,4.386-7.224,6.141-12.574 c1.469,1.375,3.98,0.863,5.875-1.306c2.061-2.359,2.609-5.779,1.225-7.638c-1.106-1.485-3.112-1.521-4.924-0.273 C69.298,37.159,69,34.063,69,31.448c0-12.112-8.216-19.43-19-19.43s-19,7.318-19,19.43c0,2.662-0.21,5.823,0.421,9.134 c-0.421-1.573-2.99-1.456-4.146,0.096c-1.385,1.859-0.836,5.278,1.225,7.638c2.061,2.359,3.834,2.765,5.218,0.906 c0.006-0.007,0.01-0.016,0.015-0.024C35,55,35.664,58.91,39.014,62.045L41,69.009l-17.545,5.819 C18.087,76.729,14.5,81.806,14.5,87.5l0,0h71l0,0C85.5,81.806,81.912,76.729,76.545,74.828z"/><path fill="#40396e" d="M50.192,65.009c4.833,0,9.284-2.582,9.284-2.582 s-2.223,6.582-9.284,6.582c-7.005,0-9.732-6.654-9.732-6.654S45.359,65.009,50.192,65.009z" opacity=".35"/><path fill="#707cc0" d="M76.545,74.828l-16.648-5.46c-0.665,4.878-4.836,8.641-9.897,8.641s-9.232-3.763-9.897-8.641 l-16.648,5.46C18.087,76.729,14.5,81.806,14.5,87.5l0,0h71l0,0C85.5,81.806,81.912,76.729,76.545,74.828z"/><path fill="none" stroke="#40396e" stroke-linecap="round" stroke-linejoin="round" stroke-miterlimit="10" stroke-width="3" d="M50,11.518c-10.784,0-19.5,7.818-19.5,19.93c0,2.662,0.369,4.741,1,8.052c-1.874-1.424-3.574-0.523-4.174,0.179 c-1.507,1.761-0.836,6.278,1.225,8.638c2.061,2.359,4.949,1.193,4.949,1.193c0.006-0.007-0.5,7.491,6,14v5l-16.045,6.319 c-5.368,1.9-8.955,6.977-8.955,12.671l0,0h71l0,0c0-5.694-3.588-10.771-8.955-12.672L60.5,68.509v-5c6.5-6.509,5.994-14.007,6-14 c0,0,2.905,1.167,4.966-1.193c2.061-2.359,2.732-6.877,1.225-8.638c-0.6-0.701-2.317-1.602-4.191-0.179c0.631-3.311,1-5.39,1-8.052 C69.5,19.337,60.784,11.518,50,11.518"/><path fill="#40396e" d="M40.079,23c5.528,0,14.313,0,19.841,0c2.777,0,4.856,2.207,5.174,4.966 C66.203,37.577,67.088,40,67.088,40h5.832c-0.07-0.114-0.145-0.224-0.229-0.321c-0.6-0.701-2.238-1.52-4.112-0.096 c0.631-3.311,0.921-5.472,0.921-8.134c0-12.112-8.716-19.93-19.5-19.93s-19.5,7.818-19.5,19.93c0,2.662,0.29,4.823,0.921,8.134 c-1.874-1.424-3.495-0.605-4.095,0.096c-0.084,0.098-0.158,0.207-0.229,0.321h5.813c0,0,0.907-2.242,1.995-12.034 C35.212,25.206,37.302,23,40.079,23z"/><path fill="#40396e" d="M29.536,37.253c0,0,2.162-2.723,4.272-3.25c0,0,25.818-1.581,27.885-14.733 C63.918,5.112,46.381,7.78,41.418,9.107C37.07,10.27,23.494,15.831,29.536,37.253z"/><path fill="#40396e" d="M59.57,21.629c0,0-0.365,3.762,6.643,12.37l4.187,3.349c0,0,7.44-19.747-9.633-24.561L59.57,21.629z"/></svg>