<svg width="100" height="100" viewBox="0 0 100 100" fill="none" xmlns="http://www.w3.org/2000/svg">
<path d="M82 8H18C12.48 8 8 12.48 8 18V82C8 87.52 12.48 92 18 92H82C87.52 92 92 87.52 92 82V18C92 12.48 87.52 8 82 8ZM34 40V78H22V40H34ZM22 28.94C22 26.14 24.4 24 28 24C31.6 24 33.86 26.14 34 28.94C34 31.74 31.76 34 28 34C24.4 34 22 31.74 22 28.94ZM78 78H66C66 78 66 59.48 66 58C66 54 64 50 59 49.92H58.84C54 49.92 52 54.04 52 58C52 59.82 52 78 52 78H40V40H52V45.12C52 45.12 55.86 40 63.62 40C71.56 40 78 45.46 78 56.52V78Z" fill="white"/>
</svg>
