<svg width="100" height="100" viewBox="0 0 100 100" fill="none" xmlns="http://www.w3.org/2000/svg">
<path d="M12 6C11.6381 6.00008 11.2829 6.09838 10.9724 6.28442C10.6619 6.47046 10.4077 6.73726 10.2369 7.0564C10.0661 7.37554 9.98513 7.73504 10.0026 8.09658C10.02 8.45813 10.1352 8.80816 10.336 9.10938L37.5977 50L10.336 90.8906C10.1352 91.1918 10.02 91.5419 10.0026 91.9034C9.98513 92.265 10.0661 92.6245 10.2369 92.9436C10.4077 93.2627 10.6619 93.5295 10.9724 93.7156C11.2829 93.9016 11.6381 93.9999 12 94H29.1172C29.4393 94.0001 29.7567 93.9223 30.0424 93.7734C30.328 93.6244 30.5735 93.4087 30.7578 93.1445L50 65.5L69.2422 93.1445C69.4266 93.4087 69.672 93.6244 69.9576 93.7734C70.2433 93.9223 70.5607 94.0001 70.8828 94H88C88.362 93.9999 88.7171 93.9016 89.0276 93.7156C89.3381 93.5295 89.5923 93.2627 89.7631 92.9436C89.9339 92.6245 90.0149 92.265 89.9975 91.9034C89.98 91.5419 89.8648 91.1918 89.6641 90.8906L62.4024 50L89.6641 9.10938C89.8648 8.80816 89.98 8.45813 89.9975 8.09658C90.0149 7.73504 89.9339 7.37554 89.7631 7.0564C89.5923 6.73726 89.3381 6.47046 89.0276 6.28442C88.7171 6.09838 88.362 6.00008 88 6H70.8828C70.5607 5.99994 70.2433 6.07769 69.9576 6.22663C69.672 6.37557 69.4266 6.5913 69.2422 6.85547L50 34.5L30.7578 6.85547C30.5735 6.5913 30.328 6.37557 30.0424 6.22663C29.7567 6.07769 29.4393 5.99994 29.1172 6H12ZM15.7383 10H28.0703L48.3594 39.1445C48.5437 39.4088 48.7891 39.6246 49.0748 39.7737C49.3604 39.9227 49.6778 40.0005 50 40.0005C50.3222 40.0005 50.6396 39.9227 50.9253 39.7737C51.2109 39.6246 51.4563 39.4088 51.6406 39.1445L71.9297 10H84.2617L58.336 48.8906C58.117 49.2192 58.0001 49.6052 58.0001 50C58.0001 50.3948 58.117 50.7808 58.336 51.1094L84.2617 90H71.9297L51.6406 60.8555C51.4563 60.5912 51.2109 60.3754 50.9253 60.2263C50.6396 60.0773 50.3222 59.9995 50 59.9995C49.6778 59.9995 49.3604 60.0773 49.0748 60.2263C48.7891 60.3754 48.5437 60.5912 48.3594 60.8555L28.0703 90H15.7383L41.6641 51.1094C41.8831 50.7808 41.9999 50.3948 41.9999 50C41.9999 49.6052 41.8831 49.2192 41.6641 48.8906L15.7383 10Z" fill="white"/>
</svg>
